<?xml version="1.0" encoding="UTF-8"?>
<svg width="29px" height="34px" viewBox="0 0 29 34" version="1.1" xmlns="http://www.w3.org/2000/svg" xmlns:xlink="http://www.w3.org/1999/xlink">
    <title>编组 3</title>
    <g id="页面-1" stroke="none" stroke-width="1" fill="none" fill-rule="evenodd">
        <g id="画板" transform="translate(-901.000000, -180.000000)">
            <g id="编组-3" transform="translate(901.000000, 180.000000)">
                <g id="编组备份" transform="translate(15.500000, 17.000000) rotate(30.000000) translate(-15.500000, -17.000000) translate(11.000000, 4.000000)">
                    <path d="M0,9 L0,4.44705882 C0,1.99101605 2.01471863,0 4.5,0 C6.98528137,0 9,1.99101605 9,4.44705882 L9,9" id="路径" stroke="#79B0D5" stroke-width="4" stroke-linecap="round"></path>
                    <path d="M0,26 L0,21.4470588 C0,18.9910161 2.01471863,17 4.5,17 C6.98528137,17 9,18.9910161 9,21.4470588 L9,26" id="路径" stroke="#79B0D5" stroke-width="4" stroke-linecap="round" transform="translate(4.500000, 21.500000) scale(1, -1) translate(-4.500000, -21.500000) "></path>
                    <rect id="矩形" fill="#79B0D5" x="3" y="9" width="3" height="7" rx="1.5"></rect>
                </g>
            </g>
        </g>
    </g>
</svg>