<?xml version="1.0" standalone="no"?><!DOCTYPE svg PUBLIC "-//W3C//DTD SVG 1.1//EN" "http://www.w3.org/Graphics/SVG/1.1/DTD/svg11.dtd"><svg t="1643103377076" class="icon" viewBox="0 0 1024 1024" version="1.1" xmlns="http://www.w3.org/2000/svg" p-id="10817" xmlns:xlink="http://www.w3.org/1999/xlink" width="200" height="200"><defs><style type="text/css"></style></defs><path d="M804.571429 219.428571h109.714285a36.571429 36.571429 0 1 1 0 73.142858H877.714286v475.428571A182.857143 182.857143 0 0 1 694.857143 950.857143h-365.714286A182.857143 182.857143 0 0 1 146.285714 768V292.571429h-36.571428a36.571429 36.571429 0 0 1 0-73.142858H292.571429a146.285714 146.285714 0 0 1 146.285714-146.285714h146.285714a146.285714 146.285714 0 0 1 146.285714 146.285714h73.142858zM365.714286 219.428571h292.571428a73.142857 73.142857 0 0 0-73.142857-73.142857H438.857143a73.142857 73.142857 0 0 0-73.142857 73.142857z m438.857143 73.142858H219.428571v487.643428C219.428571 834.048 263.094857 877.714286 316.928 877.714286h390.144c53.833143 0 97.499429-43.666286 97.499429-97.499429V292.571429zM402.285714 438.857143a36.571429 36.571429 0 0 1 36.571429 36.571428v219.428572a36.571429 36.571429 0 0 1-73.142857 0v-219.428572a36.571429 36.571429 0 0 1 36.571428-36.571428z m219.428572 0a36.571429 36.571429 0 0 1 36.571428 36.571428v219.428572a36.571429 36.571429 0 0 1-73.142857 0v-219.428572a36.571429 36.571429 0 0 1 36.571429-36.571428z" fill="#DF987E" p-id="10818"></path></svg>