<?xml version="1.0" standalone="no"?><!DOCTYPE svg PUBLIC "-//W3C//DTD SVG 1.1//EN" "http://www.w3.org/Graphics/SVG/1.1/DTD/svg11.dtd"><svg t="1642079326876" class="icon" viewBox="0 0 1740 1024" version="1.1" xmlns="http://www.w3.org/2000/svg" p-id="1404" xmlns:xlink="http://www.w3.org/1999/xlink" width="339.84375" height="200"><defs><style type="text/css"></style></defs><path d="M93.184 697.7536c-11.264 22.528-11.264 56.32 11.264 78.848 22.528 22.528 56.32 11.264 78.848-11.264 0 0 315.392-371.712 687.104-371.712 360.448 0 687.104 371.712 687.104 371.712 22.528 22.528 56.32 22.528 78.848 0 22.528-22.528 22.528-56.32 0-78.848 0-11.264-67.584-78.848-180.224-168.96l146.432-146.432c22.528-22.528 22.528-56.32 0-78.848 0-11.264-22.528-11.264-33.792-11.264-11.264 0-22.528 0-33.792 11.264l-168.96 168.96c-67.584-45.056-157.696-101.376-259.072-135.168l67.584-202.752c11.264-33.792-11.264-56.32-33.792-67.584h-11.264c-22.528 0-45.056 11.264-56.32 45.056l-67.584 191.488c-45.056 0-90.112-11.264-135.168-11.264-45.056 0-90.112 0-135.168 11.264L667.648 100.7616c0-22.528-33.792-45.056-56.32-45.056h-11.264c-33.792 11.264-45.056 45.056-33.792 78.848l56.32 191.488c-101.376 33.792-180.224 78.848-259.072 135.168l-146.432-157.696c-11.264-11.264-22.528-22.528-45.056-22.528-11.264 0-22.528 0-33.792 11.264-22.528 22.528-22.528 56.32 0 78.848l146.432 146.432c-123.904 90.112-191.488 180.224-191.488 180.224z m585.728 67.584a180.224 180.224 0 1 0 360.448 0 180.224 180.224 0 1 0-360.448 0z" fill="#ffffff" p-id="1405"></path></svg>