<?xml version="1.0" standalone="no"?><!DOCTYPE svg PUBLIC "-//W3C//DTD SVG 1.1//EN" "http://www.w3.org/Graphics/SVG/1.1/DTD/svg11.dtd"><svg t="1642668201976" class="icon" viewBox="0 0 1024 1024" version="1.1" xmlns="http://www.w3.org/2000/svg" p-id="3936" xmlns:xlink="http://www.w3.org/1999/xlink" width="200" height="200"><defs><style type="text/css"></style></defs><path d="M619.349333 343.722667a231.253333 231.253333 0 0 0-256-108.885334l-10.922666-19.285333a64.341333 64.341333 0 1 0-111.445334 64.341333l11.093334 19.114667a231.594667 231.594667 0 0 0-34.133334 276.138667l162.986667 282.112 401.237333-231.594667z" fill="#FFC670" p-id="3937"></path><path d="M819.2 560.128a25.770667 25.770667 0 0 0-38.570667-22.357333l-229.888 132.437333-98.986666 57.173333a85.333333 85.333333 0 0 1-115.882667-31.061333l-65.706667-114.005333A256 256 0 0 1 273.066667 318.634667a210.261333 210.261333 0 0 1 111.104-87.893334 230.4 230.4 0 0 0-109.397334 47.957334 237.226667 237.226667 0 0 0-51.2 302.933333l120.490667 208.725333-21.845333 11.776a40.106667 40.106667 0 0 0-17.066667 51.2A38.4 38.4 0 0 0 358.4 870.4l22.357333-12.8 24.405334-14.165333L779.946667 627.029333a85.333333 85.333333 0 0 0 39.253333-66.901333z" fill="#FFE88A" p-id="3938"></path><path d="M779.946667 537.770667l-36.352 21.162666-124.245334-215.210666a231.424 231.424 0 0 0-316.245333-85.333334c-6.314667 3.584-12.288 7.509333-18.090667 11.605334A231.594667 231.594667 0 0 1 554.666667 375.466667l69.632 120.661333a113.834667 113.834667 0 0 1-41.642667 155.477333L460.8 722.432l-70.826667 40.96L322.218667 802.133333a40.106667 40.106667 0 0 0-17.066667 51.2A38.4 38.4 0 0 0 358.4 870.4l22.357333-12.8 100.693334-58.197333a115.882667 115.882667 0 0 0 199.509333-115.2l100.693333-58.197334A80.896 80.896 0 0 0 819.2 563.2v-2.56a25.770667 25.770667 0 0 0-39.253333-22.869333z" fill="#FF9A42" p-id="3939"></path><path d="M621.568 698.026667m-69.632 0a69.632 69.632 0 1 0 139.264 0 69.632 69.632 0 1 0-139.264 0Z" fill="#FFC670" p-id="3940"></path><path d="M550.741333 670.208L765.952 546.133333a38.570667 38.570667 0 0 1 52.565333 14.165334 38.570667 38.570667 0 0 1-13.994666 52.736L358.4 870.4a38.570667 38.570667 0 0 1-52.736-14.165333 38.570667 38.570667 0 0 1 14.165333-52.565334l69.12-39.936" fill="#FF9A42" p-id="3941"></path><path d="M536.234667 148.821333A24.576 24.576 0 0 0 512 173.397333V392.533333a12.288 12.288 0 0 0 20.992 8.704l57.173333-57.002666h221.866667A24.746667 24.746667 0 0 0 836.266667 318.976v-145.578667a24.576 24.576 0 0 0-24.746667-24.576z" fill="#96DDFF" p-id="3942"></path><path d="M532.48 400.725333l57.173333-57.002666h221.866667A24.746667 24.746667 0 0 0 836.266667 318.976v-145.578667a24.576 24.576 0 0 0-24.746667-24.576h-12.8c0 48.810667-3.072 127.829333-26.453333 127.829334h-221.866667A51.2 51.2 0 0 0 512 325.973333V392.533333a12.288 12.288 0 0 0 20.48 8.192z" fill="#69BAF9" p-id="3943"></path><path d="M812.032 131.754667H536.234667A41.813333 41.813333 0 0 0 494.933333 173.397333v49.322667a245.589333 245.589333 0 0 0-122.538666-7.509333l-4.778667-8.192a81.408 81.408 0 0 0-140.970667 81.408l4.949334 8.533333a248.661333 248.661333 0 0 0-27.477334 286.72L319.317333 785.066667l-7.509333 4.266666a55.637333 55.637333 0 0 0 55.637333 96.426667L477.866667 821.077333a132.778667 132.778667 0 0 0 224.426666-129.536l110.592-64a55.637333 55.637333 0 0 0-55.637333-96.256l-7.509333 4.266667L648.533333 360.618667h163.157334A41.813333 41.813333 0 0 0 853.333333 318.976v-145.578667a41.813333 41.813333 0 0 0-41.301333-41.642666zM273.066667 206.848a47.274667 47.274667 0 0 1 64.512 17.066667 265.386667 265.386667 0 0 0-43.349334 19.456A254.464 254.464 0 0 0 256 271.701333a47.104 47.104 0 0 1 17.066667-64.853333z m351.914666 609.621333a98.133333 98.133333 0 0 1-116.394666-12.970666l163.328-94.378667a97.962667 97.962667 0 0 1-46.933334 107.349333z m95.232-263.850666l-178.005333 102.4a17.066667 17.066667 0 0 0-6.314667 23.210666 17.066667 17.066667 0 0 0 23.381334 6.314667l215.210666-124.245333A21.504 21.504 0 1 1 795.989333 597.333333L350.378667 855.381333a21.504 21.504 0 0 1-21.504-37.376l69.12-39.936a17.066667 17.066667 0 1 0-17.066667-29.525333L348.842667 768l-115.712-201.386667a214.698667 214.698667 0 0 1 78.506666-293.546666A211.968 211.968 0 0 1 494.933333 259.072V392.533333a29.184 29.184 0 0 0 17.066667 26.624 28.672 28.672 0 0 0 32.085333-6.314666L597.333333 360.618667h12.8zM819.2 318.976a7.68 7.68 0 0 1-7.68 7.509333h-221.866667a17.066667 17.066667 0 0 0-12.117333 5.12L529.066667 380.586667V173.397333a7.68 7.68 0 0 1 7.68-7.509333h275.285333a7.68 7.68 0 0 1 7.68 7.509333z" fill="#3D3D63" p-id="3944"></path><path d="M591.530667 232.789333h51.2a17.066667 17.066667 0 0 0 0-34.133333h-51.2a17.066667 17.066667 0 0 0 0 34.133333zM738.304 259.584h-146.773333a17.066667 17.066667 0 0 0 0 34.133333h146.773333a17.066667 17.066667 0 0 0 0-34.133333zM451.754667 707.754667l-14.848 8.533333a17.066667 17.066667 0 1 0 17.066666 29.525333l14.848-8.533333a17.066667 17.066667 0 0 0 6.144-23.381333 17.066667 17.066667 0 0 0-23.210666-6.144z" fill="#3D3D63" p-id="3945"></path></svg>