<?xml version="1.0" standalone="no"?><!DOCTYPE svg PUBLIC "-//W3C//DTD SVG 1.1//EN" "http://www.w3.org/Graphics/SVG/1.1/DTD/svg11.dtd"><svg t="1642079312974" class="icon" viewBox="0 0 2141 1024" version="1.1" xmlns="http://www.w3.org/2000/svg" p-id="1222" xmlns:xlink="http://www.w3.org/1999/xlink" width="418.1640625" height="200"><defs><style type="text/css"></style></defs><path d="M2110.557091 152.482909a75.682909 75.682909 0 0 0-14.894546-100.724364 76.334545 76.334545 0 0 0-105.378909 14.24291c-3.723636 3.537455-421.422545 475.415273-919.738181 475.415272C588.334545 541.416727 150.807273 66.094545 147.083636 62.370909 121.018182 33.978182 71.400727 30.440727 41.704727 55.296a71.400727 71.400727 0 0 0-7.447272 100.817455c7.447273 10.612364 97.931636 107.892364 241.75709 215.784727L83.781818 562.734545a68.049455 68.049455 0 0 0 3.723637 100.817455c7.447273 14.242909 26.065455 21.410909 44.590545 21.410909 18.618182 0 37.236364-7.168 53.341091-21.410909l206.941091-205.079273c97.931636 65.163636 214.481455 125.672727 343.412363 169.425455l-79.313454 256.186182c-11.170909 39.098182 11.170909 79.406545 53.248 90.112h22.341818c33.512727 0 64.418909-21.410909 71.866182-54.551273l79.313454-256.093091c60.788364 10.705455 123.997091 17.780364 188.416 17.780364 64.512 0 127.720727-7.074909 188.416-17.780364l79.406546 252.555636c7.447273 32.023273 40.866909 54.551273 71.866182 54.551273 7.447273 0 14.894545 0 18.618182-3.537454a72.704 72.704 0 0 0 53.248-90.112l-79.313455-252.555637a1469.533091 1469.533091 0 0 0 343.319273-169.611636l203.310545 201.634909c14.894545 14.149818 33.512727 21.317818 53.341091 21.317818 19.828364 0 37.236364-7.168 53.248-21.410909a71.307636 71.307636 0 0 0 3.723636-100.724364l-192.139636-190.836363c151.272727-107.985455 241.757091-212.247273 241.757091-212.247273z" p-id="1223" fill="#ffffff"></path></svg>